<svg width="17" height="17" viewBox="0 0 17 17" fill="none" xmlns="http://www.w3.org/2000/svg">
<path d="M16.313 1.02043C15.7403 0.922754 15.1604 0.872478 14.5793 0.870121C12.5966 0.868511 10.6553 1.43145 8.98669 2.49184C7.31383 1.44538 5.37281 0.896251 3.39411 0.909675C2.813 0.912033 2.2331 0.962308 1.66041 1.05998C1.47283 1.092 1.30295 1.18929 1.18138 1.33432C1.05981 1.47936 0.994528 1.6626 0.997295 1.85107V11.3441C0.995584 11.4603 1.01977 11.5755 1.06812 11.6814C1.11648 11.7874 1.18781 11.8814 1.27706 11.957C1.36631 12.0325 1.47127 12.0876 1.58448 12.1184C1.69769 12.1492 1.81636 12.1549 1.93205 12.1352C3.07695 11.9389 4.24994 11.9715 5.38193 12.231C6.51392 12.4904 7.58202 12.9716 8.52331 13.6461L8.61918 13.7015H8.70707C8.79567 13.7381 8.89071 13.7569 8.98669 13.7569C9.08268 13.7569 9.17772 13.7381 9.26632 13.7015H9.35421L9.45008 13.6461C10.3848 12.9565 11.4498 12.4598 12.582 12.1853C13.7142 11.9108 14.8906 11.8642 16.0413 12.0482C16.157 12.0679 16.2757 12.0622 16.3889 12.0314C16.5021 12.0006 16.6071 11.9455 16.6963 11.87C16.7856 11.7944 16.8569 11.7003 16.9053 11.5944C16.9536 11.4885 16.9778 11.3733 16.9761 11.2571V1.76405C16.9678 1.5838 16.8975 1.41178 16.7769 1.27653C16.6563 1.14128 16.4926 1.05091 16.313 1.02043ZM8.18775 11.5339C6.70962 10.764 5.06431 10.3621 3.39411 10.3631C3.13046 10.3631 2.86681 10.3631 2.59517 10.3631V2.45229C2.86127 2.43711 3.12802 2.43711 3.39411 2.45229C5.09856 2.45043 6.76581 2.94568 8.18775 3.87624V11.5339ZM15.3782 10.3948C15.1066 10.3948 14.8429 10.3948 14.5793 10.3948C12.9091 10.3938 11.2638 10.7956 9.78563 11.5656V3.87624C11.2076 2.94568 12.8748 2.45043 14.5793 2.45229C14.8454 2.43711 15.1121 2.43711 15.3782 2.45229V10.3948ZM16.313 13.6778C15.7403 13.5801 15.1604 13.5298 14.5793 13.5275C12.5966 13.5259 10.6553 14.0888 8.98669 15.1492C7.31812 14.0888 5.37679 13.5259 3.39411 13.5275C2.813 13.5298 2.2331 13.5801 1.66041 13.6778C1.55641 13.6941 1.4567 13.7307 1.36701 13.7853C1.27733 13.8399 1.19943 13.9116 1.1378 13.9961C1.07618 14.0807 1.03204 14.1764 1.00792 14.2779C0.98381 14.3794 0.980198 14.4847 0.997295 14.5875C1.0379 14.793 1.15907 14.9741 1.33428 15.0912C1.50949 15.2084 1.72444 15.252 1.93205 15.2125C3.07695 15.0162 4.24994 15.0488 5.38193 15.3083C6.51392 15.5678 7.58202 16.0489 8.52331 16.7235C8.65862 16.8189 8.82059 16.8701 8.98669 16.8701C9.1528 16.8701 9.31477 16.8189 9.45008 16.7235C10.3914 16.0489 11.4595 15.5678 12.5915 15.3083C13.7234 15.0488 14.8964 15.0162 16.0413 15.2125C16.2489 15.252 16.4639 15.2084 16.6391 15.0912C16.8143 14.9741 16.9355 14.793 16.9761 14.5875C16.9932 14.4847 16.9896 14.3794 16.9655 14.2779C16.9414 14.1764 16.8972 14.0807 16.8356 13.9961C16.774 13.9116 16.6961 13.8399 16.6064 13.7853C16.5167 13.7307 16.417 13.6941 16.313 13.6778Z" fill="#DBDBDB"/>
</svg>
