<svg width="20" height="20" viewBox="0 0 20 20" fill="none" xmlns="http://www.w3.org/2000/svg">
<path d="M20 10C20 15.5228 15.5228 20 10 20C4.47715 20 0 15.5228 0 10C0 4.47715 4.47715 0 10 0C15.5228 0 20 4.47715 20 10Z" fill="#FFEDF6"/>
<path d="M13.0533 8.70423L12.2665 7.91739L7.08362 13.1003V13.8871H7.87045L13.0533 8.70423ZM13.8401 7.91739L14.627 7.13056L13.8401 6.34373L13.0533 7.13056L13.8401 7.91739ZM8.3312 15H5.9707V12.6389L13.4467 5.16292C13.5511 5.0586 13.6926 5 13.8401 5C13.9877 5 14.1292 5.0586 14.2336 5.16292L15.8078 6.73715C15.9121 6.8415 15.9707 6.98301 15.9707 7.13056C15.9707 7.27811 15.9121 7.41963 15.8078 7.52398L8.33176 15H8.3312Z" fill="#EA95C0"/>
</svg>
