<svg width="18" height="18" viewBox="0 0 18 18" fill="none" xmlns="http://www.w3.org/2000/svg">
<path d="M6.63827 16.9618L6.87789 17.6725H6.87789L6.63827 16.9618ZM11.6383 15.276L11.8779 15.9867H11.8779L11.6383 15.276ZM16.6897 4.32674L16.1563 3.79945L16.6897 4.32674ZM12.2674 8.79997L12.8007 9.32725L12.2674 8.79997ZM5.68966 8.79997L5.1563 9.32725L5.68966 8.79997ZM1.97852 1.75H15.9785V0.25H1.97852V1.75ZM1.72852 3.62369V2H0.228516V3.62369H1.72852ZM6.22302 8.27268L1.80073 3.79945L0.734013 4.85402L5.1563 9.32725L6.22302 8.27268ZM5.22852 9.50301V16.4881H6.72852V9.50301H5.22852ZM5.22852 16.4881C5.22852 17.3431 6.06769 17.9457 6.87789 17.6725L6.39864 16.2512C6.56068 16.1965 6.72852 16.317 6.72852 16.4881H5.22852ZM6.87789 17.6725L11.8779 15.9867L11.3986 14.5653L6.39864 16.2512L6.87789 17.6725ZM11.8779 15.9867C12.3862 15.8153 12.7285 15.3386 12.7285 14.8022H11.2285C11.2285 14.6949 11.297 14.5996 11.3986 14.5653L11.8779 15.9867ZM12.7285 14.8022V9.50301H11.2285V14.8022H12.7285ZM16.1563 3.79945L11.734 8.27268L12.8007 9.32725L17.223 4.85402L16.1563 3.79945ZM16.2285 2V3.62369H17.7285V2H16.2285ZM17.223 4.85402C17.5469 4.52643 17.7285 4.08435 17.7285 3.62369H16.2285C16.2285 3.6895 16.2026 3.75266 16.1563 3.79945L17.223 4.85402ZM12.7285 9.50301C12.7285 9.4372 12.7545 9.37405 12.8007 9.32725L11.734 8.27268C11.4102 8.60027 11.2285 9.04235 11.2285 9.50301H12.7285ZM5.1563 9.32725C5.20257 9.37405 5.22852 9.4372 5.22852 9.50301H6.72852C6.72852 9.04235 6.54688 8.60028 6.22302 8.27268L5.1563 9.32725ZM0.228516 3.62369C0.228516 4.08435 0.41015 4.52643 0.734013 4.85402L1.80073 3.79945C1.75446 3.75266 1.72852 3.6895 1.72852 3.62369H0.228516ZM15.9785 1.75C16.1166 1.75 16.2285 1.86193 16.2285 2H17.7285C17.7285 1.0335 16.945 0.25 15.9785 0.25V1.75ZM1.97852 0.25C1.01202 0.25 0.228516 1.0335 0.228516 2H1.72852C1.72852 1.86193 1.84045 1.75 1.97852 1.75V0.25Z" fill="white"/>
</svg>
